<?xml version="1.0" standalone="no"?>
<!DOCTYPE svg PUBLIC "-//W3C//DTD SVG 20010904//EN"
 "http://www.w3.org/TR/2001/REC-SVG-20010904/DTD/svg10.dtd">
<svg version="1.0" xmlns="http://www.w3.org/2000/svg"
 width="20px" height="20px" viewBox="0 0 50.000000 50.000000"
 preserveAspectRatio="xMidYMid meet">

<g transform="translate(0.000000,50.000000) scale(0.100000,-0.100000)"
fill="#fff" stroke="none">
<path d="M172 488 c-16 -16 -15 -51 2 -93 13 -31 13 -39 0 -72 -9 -20 -17 -60
-19 -89 -2 -35 -12 -64 -30 -92 -53 -80 -17 -128 87 -116 46 5 58 3 66 -11 7
-14 13 -15 31 -6 11 7 21 8 21 2 0 -10 57 0 85 16 12 7 26 6 47 -4 30 -16 54
-9 28 7 -10 7 -11 10 -2 10 8 0 12 16 12 44 0 36 -4 46 -21 51 -29 10 -59 -21
-59 -61 0 -27 -5 -34 -32 -43 -23 -8 -33 -8 -39 0 -4 7 -13 8 -20 4 -8 -5 -6
1 4 12 23 26 32 84 18 111 -6 12 -34 29 -61 39 -87 31 -77 89 13 80 62 -6 87
15 87 71 0 24 9 50 24 70 23 32 23 32 41 12 17 -19 17 -20 -9 -41 -33 -26 -35
-71 -4 -93 33 -23 58 -5 58 44 0 25 -5 40 -12 40 -10 0 -9 3 1 9 10 7 8 14
-10 36 -30 34 -79 61 -79 43 0 -6 -7 -3 -15 8 -15 19 -15 19 -30 0 -14 -19
-15 -19 -15 -2 0 14 -3 16 -14 7 -10 -8 -24 -7 -56 4 -51 18 -82 19 -98 3z m5
-40 c-3 -8 -6 -5 -6 6 -1 11 2 17 5 13 3 -3 4 -12 1 -19z m76 3 c16 -6 16 -9
-7 -30 l-26 -24 -9 24 c-14 37 0 47 42 30z m1 -54 c-16 -18 -37 -44 -46 -57
-9 -14 -17 -20 -17 -14 -1 11 76 104 86 104 3 0 -8 -15 -23 -33z m228 -45
c-10 -3 -10 -7 -1 -18 9 -11 8 -14 -7 -14 -16 0 -17 -2 -4 -10 13 -9 13 -10 0
-10 -37 0 -52 46 -24 74 14 15 17 14 32 -1 13 -12 14 -17 4 -21z m-118 -11 c4
-5 -3 -7 -14 -4 -23 6 -26 13 -6 13 8 0 17 -4 20 -9z m-34 -31 c0 -5 -2 -10
-4 -10 -3 0 -8 5 -11 10 -3 6 -1 10 4 10 6 0 11 -4 11 -10z m-140 -45 c0 -19
-4 -35 -10 -35 -11 0 -13 30 -4 54 10 25 14 19 14 -19z m6 -110 c12 -54 8 -58
-12 -10 -16 38 -18 55 -6 55 4 0 12 -20 18 -45z m-50 -23 c-18 -16 -18 -16 -6
6 6 13 14 21 18 18 3 -4 -2 -14 -12 -24z m164 18 c0 -5 -2 -10 -4 -10 -3 0 -8
5 -11 10 -3 6 -1 10 4 10 6 0 11 -4 11 -10z m-122 -78 c-40 -4 -52 8 -32 36
l15 22 24 -28 24 -27 -31 -3z m135 41 c-7 -2 -19 -2 -25 0 -7 3 -2 5 12 5 14
0 19 -2 13 -5z m153 -7 c10 -10 11 -17 3 -22 -8 -5 -7 -9 2 -14 10 -7 9 -12
-3 -24 -14 -14 -17 -13 -32 3 -19 21 -21 42 -4 59 15 15 16 15 34 -2z m-359
-38 c-3 -8 -6 -5 -6 6 -1 11 2 17 5 13 3 -3 4 -12 1 -19z"/>
<path d="M326 224 c-11 -29 -7 -36 19 -30 19 5 23 3 19 -9 -11 -28 4 -15 20
17 21 40 20 45 -3 24 -16 -15 -19 -15 -24 -1 -8 20 -23 19 -31 -1z"/>
</g>
</svg>
